# xmcd
#
# Track frame offsets: 
#        150
#        13742
#        29567
#        46370
#        66152
#        87940
#        104425
#        118890
#        135095
#        151025
#
# Disc length: 2337 seconds
#
# Revision: 7
# Processed by: cddbd v1.5.1PL2 Copyright (c) Steve Scherf et al.
# Submitted via: ExactAudioCopy v0.95b4
#
DISCID=7c091f0a
DTITLE=The Judds - Greatest Hits Volume Two
DYEAR=1996
DGENRE=Country
TTITLE0=Let Me Tell You About Love
TTITLE1=John Deere Tractor
TTITLE2=Turn It Loose
TTITLE3=Young Love
TTITLE4=Born To Be Blue
TTITLE5=I Know Where I'm Going
TTITLE6=Had a Dream
TTITLE7=Guardian Angels
TTITLE8=Maybe Your Baby's Got The Blues
TTITLE9=Love Can Build A Bridge
EXTD=
EXTT0=
EXTT1=
EXTT2=
EXTT3=
EXTT4=
EXTT5=
EXTT6=
EXTT7=
EXTT8=
EXTT9=
PLAYORDER=
